<?xml version="1.0" encoding="utf-8"?>
<!-- Generator: Adobe Illustrator 22.1.0, SVG Export Plug-In . SVG Version: 6.00 Build 0)  -->
<svg version="1.1" id="Layer_1" xmlns="http://www.w3.org/2000/svg" xmlns:xlink="http://www.w3.org/1999/xlink" x="0px" y="0px"
	 viewBox="0 0 300.2 306.9" style="enable-background:new 0 0 300.2 306.9;" xml:space="preserve">
<style type="text/css">
	.st0{fill:#00AA90;}
</style>
<g>
	<path class="st0" d="M151.8,245.2c0-6.2,0.1-12.3,0-18.4c0-1.7,0.6-2.2,2.2-2.9c6-2.3,12.3-4.3,17.8-7.6
		c14.2-8.6,19.6-27.6,12.8-42.7c-3.5-7.7-9.4-13-16.7-16.6c-7.6-3.7-15.6-6.6-23.3-10.1c-3.8-1.7-7.6-3.7-10.8-6.2
		c-5.4-4.4-4.7-11.7,1.2-15.4c1.8-1.1,4-2,6.1-2.4c9-1.6,17.7-0.4,26.3,2.5c3,1,5.8,2.3,8.9,3.5c1.9-7.1,3.8-13.8,5.5-20.5
		c0.2-0.7-0.7-2.3-1.4-2.5c-6.1-1.9-12.2-3.7-18.4-5.2c-2.6-0.7-5.4-0.7-8.4-1.1c0-5.9,0-11.5,0-17c-6.7,0-13.2,0-19.8,0
		c0,4.9,0,9.6,0,14.3c0,4.5,0,4.5-4.3,5.7c-11.7,3.3-21.4,9.3-26.6,20.9c-4.8,10.9-3.9,24.6,4.8,33.9c6.3,6.7,14.1,10.7,22.4,14.1
		c6.1,2.5,12.3,4.7,18.2,7.7c6.3,3.2,9,8.1,7.9,13.4c-1.2,6.3-6.1,8.6-11.7,9.6c-9,1.7-17.9,0.5-26.6-2.4c-4.6-1.5-9-3.4-13.7-5.2
		c-1.9,7.3-3.7,14.4-5.6,21.6c-0.1,0.5-0.2,0.9-0.2,1.4c5.5,3.4,18,7.3,25.7,8c8,0.7,8,0.7,8,8.9c0,3.6,0,7.3,0,10.9
		C138.8,245.2,145.1,245.2,151.8,245.2z M111.3,0c-0.2,0.7-0.3,0.8-0.3,1c0,6.6-0.1,13.2,0,19.8c0,1.8-0.4,2.7-2.3,3.1
		c-3.4,0.9-6.7,1.9-10,3.1C65.4,39.3,38.9,60.2,20.4,90.8C2.8,120-3,151.6,1.4,185.2c0.2,1.5,0.7,3,1,4.6c0.1,0,0.3-0.1,0.4-0.1
		c0.7-3.8,1.5-7.7,2.3-11.9c8.7,7.2,16.9,14.1,25.9,21.5c-8.7-32.1-6.5-62.5,9.2-91.1C55.9,79.7,79.7,61,111.1,51
		c0,5.2,0,9.7,0,14.7c21.7-11,43.1-21.8,65-32.9C154.1,21.7,132.8,10.9,111.3,0z M38.9,262c60.6,62.6,148.4,53.5,195.9,10.8
		c-3.3,1-6.1,1.9-9.3,2.9c1.4-11,2.8-21.4,4.3-32.8c-23.1,24-50.4,37.1-83,38c-32.6,0.9-60.4-10.7-84.5-32.8c4.4-2.4,8.5-4.6,12.9-7
		c-20.3-13.4-40.2-26.4-60.7-39.9c1.5,24.5,2.9,48.5,4.3,72.9C26,269.8,32.4,265.9,38.9,262z M169.3,49.3
		c72.4,18.7,102,89.6,87.1,142.1c-4.1-2.2-8.2-4.3-12.7-6.7c-1.5,24.4-2.9,48.4-4.3,72.9c20.5-13.5,40.4-26.6,60.7-39.9
		c-6.9-4.2-13.4-8.2-19.8-12.1c24.1-84.7-29.2-155.7-89.1-176.2c3.3,2.5,6,4.5,9.2,6.9C190,40.6,180,44.8,169.3,49.3z"/>
	<path class="st0" d="M151.8,245.2c-6.7,0-13,0-20,0c0-3.6,0-7.3,0-10.9c0-8.2,0-8.2-8-8.9c-7.7-0.7-20.2-4.5-25.7-8
		c0.1-0.4,0.1-0.9,0.2-1.4c1.8-7.1,3.7-14.3,5.6-21.6c4.6,1.8,9.1,3.7,13.7,5.2c8.6,2.9,17.5,4.1,26.6,2.4
		c5.5-1.1,10.4-3.4,11.7-9.6c1.1-5.4-1.6-10.3-7.9-13.4c-5.9-2.9-12.1-5.2-18.2-7.7c-8.3-3.4-16.1-7.4-22.4-14.1
		c-8.7-9.3-9.6-23-4.8-33.9c5.2-11.6,14.9-17.6,26.6-20.9c4.3-1.2,4.3-1.2,4.3-5.7c0-4.7,0-9.4,0-14.3c6.7,0,13.1,0,19.8,0
		c0,5.6,0,11.1,0,17c3,0.4,5.8,0.4,8.4,1.1c6.2,1.6,12.3,3.3,18.4,5.2c0.7,0.2,1.6,1.8,1.4,2.5c-1.7,6.8-3.6,13.5-5.5,20.5
		c-3-1.2-5.9-2.5-8.9-3.5c-8.5-2.9-17.3-4.1-26.3-2.5c-2.1,0.4-4.3,1.2-6.1,2.4c-5.9,3.7-6.6,11-1.2,15.4c3.2,2.6,7,4.5,10.8,6.2
		c7.7,3.5,15.7,6.4,23.3,10.1c7.3,3.6,13.2,8.9,16.7,16.6c6.8,15.1,1.4,34.1-12.8,42.7c-5.5,3.3-11.7,5.3-17.8,7.6
		c-1.6,0.6-2.2,1.2-2.2,2.9C151.9,232.9,151.8,239,151.8,245.2z"/>
	<path class="st0" d="M111.3,0c21.5,10.9,42.8,21.7,64.8,32.8c-21.9,11.1-43.2,21.9-65,32.9c0-5,0-9.6,0-14.7
		c-31.4,10-55.2,28.7-70.9,57.2c-15.7,28.6-18,58.9-9.2,91.1c-8.9-7.4-17.2-14.3-25.9-21.5c-0.8,4.2-1.6,8.1-2.3,11.9
		c-0.1,0-0.3,0.1-0.4,0.1c-0.3-1.5-0.8-3-1-4.6c-4.4-33.6,1.3-65.3,19-94.4c18.5-30.6,45-51.5,78.4-63.8c3.3-1.2,6.6-2.2,10-3.1
		c1.8-0.5,2.3-1.4,2.3-3.1c-0.1-6.6,0-13.2,0-19.8C111.1,0.8,111.1,0.7,111.3,0z"/>
	<path class="st0" d="M38.9,262c-6.5,3.9-12.9,7.8-19.9,12.1c-1.4-24.4-2.9-48.3-4.3-72.9c20.4,13.4,40.3,26.5,60.7,39.9
		c-4.5,2.4-8.5,4.6-12.9,7c24.1,22.1,51.9,33.7,84.5,32.8c32.6-0.9,59.8-14,83-38c-1.5,11.4-2.9,21.9-4.3,32.8c3.2-1,6-1.9,9.3-2.9
		C187.3,315.5,99.5,324.6,38.9,262z"/>
	<path class="st0" d="M169.3,49.3c10.7-4.5,20.6-8.6,31-13c-3.2-2.4-5.9-4.5-9.2-6.9c59.9,20.5,113.3,91.5,89.1,176.2
		c6.4,3.9,12.9,7.9,19.8,12.1c-20.3,13.4-40.2,26.4-60.7,39.9c1.5-24.5,2.9-48.4,4.3-72.9c4.4,2.3,8.5,4.5,12.7,6.7
		C271.3,138.8,241.8,67.9,169.3,49.3z"/>
</g>
</svg>
