<?xml version="1.0" encoding="utf-8"?>
<!-- Generator: Adobe Illustrator 22.1.0, SVG Export Plug-In . SVG Version: 6.00 Build 0)  -->
<svg version="1.1" id="Layer_1" xmlns="http://www.w3.org/2000/svg" xmlns:xlink="http://www.w3.org/1999/xlink" x="0px" y="0px"
	 viewBox="0 0 307.1 260.1" style="enable-background:new 0 0 307.1 260.1;" xml:space="preserve">
<style type="text/css">
	.st0{fill:#00AA90;}
</style>
<g>
	<path class="st0" d="M103.6,164.5c17.9-2.1,35.1-4.1,52.4-6.1c23-2.7,46.1-5.3,69.1-8c23.2-2.7,46.4-5.5,69.7-8.2
		c8.2-0.9,12.4-5.3,12.4-13.6c0-30.5,0-61,0-91.5c0-1.4,0-2.8-0.4-4.2c-1.4-5.9-6.1-9.1-13.3-9.1c-71.9,0-143.8,0-215.7,0
		c-1.3,0-2.6,0-4.1,0c-0.6-3.2-1.1-6.3-1.8-9.3C69.8,5.2,67.8-0.3,54.5,0C41.1,0.3,27.7,0.1,14.3,0.1c-1.7,0-3.4,0.1-5.1,0.4
		c-6.4,1.2-10.6,8-8.9,14.4c1.5,5.5,6.1,8.9,12.3,9c11.3,0.1,22.6,0.1,33.9,0c2.2,0,3.2,0.6,3.5,2.9c0.4,2.9,1.2,5.7,1.8,8.5
		c9.9,46,19.8,91.9,29.6,137.9c0.3,1.6,0,3.5-0.7,5c-2.8,6.2-6.3,12.1-8.8,18.4c-3.4,8.6,2.1,16.2,11.4,16.4c1.9,0,3.8,0,5.6,0
		c-13.5,4.3-19.8,16.4-17.8,27.9c1.6,9.1,10,18.8,22.5,19.3c10,0.5,20.3-6.7,23.2-16.5c2-6.5,1.4-12.9-2-18.8
		c-3.4-6-8.7-9.7-16.1-11.7c52.5,0,104.1,0,156.4,0c-15.1,4.5-20.2,16.6-18.7,26.9c1.4,9.8,10.1,19.4,22.5,20
		c10.3,0.5,20.5-6.7,23.5-17.3c1.8-6.4,1.1-12.7-2.4-18.4c-3.5-5.7-8.6-9.3-16-11.3c4-0.2,7-0.1,9.9-0.6c5.7-1,9.6-6.3,9.4-11.9
		c-0.3-5.8-4.7-10.6-10.5-11.2c-1.6-0.2-3.2-0.2-4.8-0.2c-54,0-108,0-162,0c-1.3,0-2.5,0-4.9,0C107.6,181.1,106.6,173,103.6,164.5z"
		/>
	<path class="st0" d="M103.6,164.5c2.9,8.6,4,16.7-2.4,24.7c2.4,0,3.7,0,4.9,0c54,0,108,0,162,0c1.6,0,3.2,0,4.8,0.2
		c5.8,0.6,10.3,5.4,10.5,11.2c0.3,5.6-3.7,10.8-9.4,11.9c-2.9,0.5-6,0.4-9.9,0.6c7.3,1.9,12.5,5.5,16,11.3c3.5,5.8,4.2,12,2.4,18.4
		c-3,10.6-13.2,17.8-23.5,17.3c-12.4-0.6-21.1-10.3-22.5-20c-1.5-10.4,3.6-22.5,18.7-26.9c-52.3,0-103.9,0-156.4,0
		c7.4,2,12.7,5.7,16.1,11.7c3.4,5.9,3.9,12.3,2,18.8c-2.9,9.8-13.2,16.9-23.2,16.5c-12.5-0.6-20.9-10.2-22.5-19.3
		c-2-11.5,4.3-23.5,17.8-27.9c-1.9,0-3.8,0-5.6,0c-9.3-0.2-14.8-7.8-11.4-16.4c2.5-6.3,5.9-12.2,8.8-18.4c0.7-1.5,1-3.5,0.7-5
		c-9.8-46-19.7-92-29.6-137.9c-0.6-2.8-1.4-5.6-1.8-8.5c-0.3-2.2-1.2-2.9-3.5-2.9c-11.3,0.1-22.6,0.1-33.9,0c-6.3,0-10.9-3.4-12.3-9
		C-1.3,8.5,2.9,1.7,9.3,0.5c1.7-0.3,3.4-0.4,5.1-0.4c13.4,0,26.8,0.2,40.2-0.1c13.2-0.3,15.3,5.1,17.4,14.5c0.7,3,1.2,6,1.8,9.3
		c1.5,0,2.8,0,4.1,0c71.9,0,143.8,0,215.7,0c7.2,0,11.9,3.2,13.3,9.1c0.3,1.3,0.4,2.8,0.4,4.2c0,30.5,0,61,0,91.5
		c0,8.3-4.2,12.6-12.4,13.6c-23.2,2.7-46.4,5.4-69.7,8.2c-23,2.7-46.1,5.3-69.1,8C138.8,160.3,121.5,162.4,103.6,164.5z"/>
</g>
</svg>
