<?xml version="1.0" encoding="utf-8"?>
<!-- Generator: Adobe Illustrator 22.1.0, SVG Export Plug-In . SVG Version: 6.00 Build 0)  -->
<svg version="1.1" id="Layer_1" xmlns="http://www.w3.org/2000/svg" xmlns:xlink="http://www.w3.org/1999/xlink" x="0px" y="0px"
	 viewBox="0 0 307.2 200.7" style="enable-background:new 0 0 307.2 200.7;" xml:space="preserve">
<style type="text/css">
	.st0{fill:#00AA90;}
</style>
<path class="st0" d="M300.8,96.5c-2.3-0.3-3.2-1.4-4.1-3.2c-8.6-16.8-17.4-33.5-25.9-50.3c-2.2-4.4-5.2-6-10-6
	c-14.3,0.2-28.6,0-42.9,0c-1.1,0-2.3-0.1-3.5-0.2c0.5-4,1.3-7.6,1.3-11.1c0-4.3,0.3-8.9-1.1-12.9C211.7,4.1,204.5,0,194.1,0
	C144.8,0,95.5,0,46.2,0c-1,0-2,0-3,0.1C40,0.5,37.7,2.3,37,5.4c-0.9,4.3-1.4,8.8-2.1,13.5c1.7,0,2.9,0,4.1,0c26.7,0,53.4,0,80.1,0
	c1.6,0,3.2,0.1,4.8,0.4c4.4,1,7.4,4.7,7.6,9.2c0.2,6.4-4.5,10.7-11.7,10.7c-36.7,0-73.4,0.1-110.1,0c-4.6,0-7.9,1.5-9.6,5.9
	c0,1,0,2,0,3c1.6,4.3,4.8,5.6,9.2,5.6c33.5-0.1,67-0.1,100.5-0.1c2.8,0,5.6-0.1,8.4,0c6.6,0.2,11.2,6.2,9.9,12.6
	c-1.2,5.8-5.5,9-12.3,9.1c-24.3,0-48.6,0-72.9,0c-1.7,0-3.4,0.1-5.1,0.5c-2.9,0.6-5.1,3.5-5.3,6.5c-0.2,2.9,1.3,5.8,4,6.8
	c1.7,0.6,3.7,0.8,5.6,0.8c14.9,0.1,29.8,0,44.7,0c9.3,0,18.6,0,27.9,0c5.9,0,10.2,4.4,10.3,10.2c0.1,6.8-4.9,11.4-12.6,11.4
	c-28.8,0-57.6,0-86.4,0c-2.4,0-4.8-0.1-7.2,0c-4.4,0.2-7.4,3.4-7.4,7.5c0.1,4,3,6.8,7.4,7c1.9,0.1,3.7,0,5.7,0c0,0.9,0,1.5,0,2.1
	c-0.7,7.2-1.4,14.3-2.1,21.5c-0.6,5.6-0.1,11,3.2,15.8c4.5,6.5,10.9,9.2,18.6,8.9c3.2-0.1,4,1.1,5.1,3.8c1.7,4.3,3.8,8.8,6.9,12.1
	c17.2,18.3,47.3,11.2,55-12.8c0.7-2.3,1.7-3.1,4.2-3.1c21,0.1,42,0.1,63,0.1c5.7,0,11.1-1.1,15.9-4.5c0.6-0.4,2.1-0.4,2.7,0
	c3.5,2.6,7.3,4.2,11.6,4.3c2,0,2.6,1,3.2,2.8c0.9,2.9,1.9,6,3.6,8.5c7.4,11.4,18.1,16.5,31.5,14.7c13.4-1.9,22.5-9.7,27.1-22.4
	c0.9-2.4,1.8-3.4,4.5-3.4c13.2-0.1,22.7-8.1,24.3-21.3c2-16.3,3.1-32.6,4.5-49C307.5,100,305,97,300.8,96.5z M79.6,186.2
	c-9.8,0-17.7-8-17.6-17.8c0.1-10,8.6-18.5,18.7-18.4c9.8,0,17.7,8,17.6,17.8C98.3,177.7,89.7,186.2,79.6,186.2z M242.6,186.2
	c-9.9,0-17.6-7.8-17.6-17.7c0-10.1,8.4-18.5,18.5-18.5c9.9,0,17.6,7.7,17.6,17.7C261.2,177.7,252.7,186.2,242.6,186.2z M290.2,130.8
	c-0.6,6.3-1.2,12.5-1.7,18.8c-0.6,7.6-3.8,10.4-11.3,10.4c-1.9,0-2.5-0.8-3-2.4c-3.8-11.2-11.4-18.3-22.8-21.2
	c-15.3-3.9-32.7,5.1-38.4,19.9c-0.7,1.8-0.7,4.4-3.9,3.6c-2.8-0.6-5.1-2.6-4.9-5.5c0.3-6.3,0.8-12.6,1.4-18.8
	c1.7-19.2,3.5-38.4,5.2-57.6c0.8-8.6,1.6-17.3,2.4-26c7,0,13.8,0,21,0c-0.3,3.4-0.5,6.7-0.8,10c-0.8,8.8-1.7,17.5-2.3,26.3
	c-0.8,11.2,4.9,19.4,15.2,22c2.3,0.6,4.7,0.6,7.1,0.7c11.7,0.1,23.4,0,35.1,0c1.1,0,2.2,0,3.6,0
	C291.3,117.7,290.8,124.2,290.2,130.8z"/>
</svg>
